# xmcd
#
# Track frame offsets:
# 150
# 17100
# 32925
# 48037
# 70800
# 89587
# 105037
# 120525
# 140250
# 159375
# 179212
# 191400
#
# Disc length: 2812 seconds
#
# Revision: 0
# Processed by: cddbd v1.4PL0 Copyright (c) Steve Scherf et al.
# Submitted via: Audion 2.5.0 (http://www.panic.com/audion/)
#
DISCID=990afa0c
DTITLE=K.D. Bell - Thriillonaire
DYEAR=1900
DGENRE=
TTITLE0=Rock and Roll Dance
TTITLE1=(Weeping and) Bending Like a Willow Tree
TTITLE2=A Cadillack, Pretty Woman and Some Money
TTITLE3=I Found a Love
TTITLE4=Something's Wrong
TTITLE5=Walkin' the Dog
TTITLE6=That's All I Need
TTITLE7=Hi-Heel Sneakers
TTITLE8=In My Younger Days
TTITLE9=Don't You Lie to Me
TTITLE10=Schoolin' Them Dice
TTITLE11=No Good for You
EXTD=
EXTT0=
EXTT1=
EXTT2=
EXTT3=
EXTT4=
EXTT5=
EXTT6=
EXTT7=
EXTT8=
EXTT9=
EXTT10=
EXTT11=
PLAYORDER=
